<svg xmlns="http://www.w3.org/2000/svg" width="46" height="46" viewBox="0 0 46 46"><g transform="translate(-220 -387)"><path d="M57.3,40.6c3.7,0,5.8-1.8,7.8-4.4,1.1-1.4,2.5-1.7,3.5-.9s1.1,2.3,0,3.7c-2.9,3.8-6.6,6.1-11.3,6.1-5.1,0-9.6-2.8-12.7-7.7a2.349,2.349,0,0,1,.3-3.4,2.417,2.417,0,0,1,3.4,1C50.5,38.3,53.5,40.6,57.3,40.6Zm6.9-12.3a3,3,0,1,1-3-3A3.009,3.009,0,0,1,64.2,28.3Z" transform="translate(185.975 374.7)" fill="rgba(0,0,0,0.03)"/><rect width="46" height="46" transform="translate(220 387)" fill="none"/></g></svg>